Simulation
nRows=34
nColumns=15
endheader
time  TH_x TH_y TH_z SC_y  SC_z  SC_x  AC_y  AC_z  AC_x  GH_y  GH_z  GH_yy  EL_x  PS_y
2.6910411985018725  0.000000  0.000000  0.000000  -23.705893703685344  4.4848588505337545  -3.7226738070975025  56.93355374989722  9.688379676068475  5.898546526701549  -16.188267186450208  2.9954509391922057  45.22506929185486  15.891330270564856  120.000000
2.7312059925093632  0.000000  0.000000  0.000000  -23.6004218714025  4.533352333343209  -3.5751035009038317  57.46468941579721  10.036874063580985  6.250993421512605  -26.901148136948553  1.115120370512918  58.29043635014263  16.63966276984751  120.000000
2.771370786516854  0.000000  0.000000  0.000000  -23.638237439747726  4.627455293101171  -3.37862838604494  57.90570507005154  10.35277356304048  6.546296866068025  -164.4206596072729  0.7924277277360395  -162.04000738386432  17.302864579578873  120.000000
2.8115355805243447  0.000000  0.000000  0.000000  -23.7805318107289  4.754418568075206  -3.1611388683736115  58.255866383918686  10.621950950885358  6.781048485295219  179.67264208268125  2.411774917966774  -144.1804727352058  17.85564034728727  120.000000
2.851700374531835  0.000000  0.000000  0.000000  -23.991525608433086  4.903091276765672  -2.9390797040599943  58.52036468264525  10.840364287961075  6.956540621824895  177.7367546010001  3.9573783984885504  -140.47779991837422  18.2824511143732  120.000000
2.8918651685393257  0.000000  0.000000  0.000000  -24.241497857401004  5.06358780366666  -2.7187548940214623  58.708434071176036  11.012579997805371  7.078766582529877  177.77987429718218  5.3897789638152345  -138.92869295292752  18.579056809568275  120.000000
2.9320299625468165  0.000000  0.000000  0.000000  -24.50749636362405  5.227200293845623  -2.5002978511561222  58.83147851257645  11.146799946566698  7.1574583595199135  178.47460630426198  6.699997896872281  -138.19647938566268  18.751647543356484  120.000000
2.972194756554307  0.000000  0.000000  0.000000  -24.771870142042268  5.386327489119955  -2.2815347594885553  58.90011355246657  11.25123659316733  7.203218887582204  179.43634244249242  7.882858405994579  -137.8886743163802  18.814590272891195  120.000000
3.012359550561798  0.000000  0.000000  0.000000  -25.02220083499379  5.536366126899124  -2.0611402843014277  58.92414785114123  11.33226617534566  7.2237963486123435  -179.48543393232805  8.936016722260078  -137.84759080909583  18.787847605009404  120.000000
3.0525243445692882  0.000000  0.000000  0.000000  -25.251266150634468  5.676637782087773  -1.8403047690668954  58.91268089655279  11.393459103254747  7.223350178328359  -178.36494118594004  9.860310430095192  -137.99189427452947  18.694463789737842  120.000000
3.092689138576779  0.000000  0.000000  0.000000  -25.45482112407954  5.807441577494102  -1.6223350969174999  58.87323312447416  11.436192557835671  7.204106686160571  -177.24611157528162  10.658914451206645  -138.27008049132746  18.55805490948135  120.000000
3.1328539325842697  0.000000  0.000000  0.000000  -25.63080792566469  5.928825731916453  -1.4111538096302298  58.81173126418834  11.460462930747662  7.168150830644999  -176.16144873777043  11.336314903101213  -138.64162573055447  18.39999765003794  120.000000
3.1730187265917604  0.000000  0.000000  0.000000  -25.778772011463467  6.040463579202305  -1.2106887539270414  58.732804289719034  11.46538935478776  7.117970682592397  -175.13865137758737  11.897457478999149  -139.07062011824107  18.23738917922087  120.000000
3.2131835205992507  0.000000  0.000000  0.000000  -25.898881503772234  6.141347438878545  -1.0246713658194644  58.64049961067705  11.449597190419855  7.056412694107382  -174.20210278646852  12.347340116764746  -139.52433365411977  18.0816213742033  120.000000
3.2533483146067415  0.000000  0.000000  0.000000  -25.991644753744307  6.230440045290035  -0.8564674675377763  58.53865515913055  11.411613031673985  6.986490464684793  -173.3736139469212  12.690467259068505  -139.9728754787963  17.93851628693328  120.000000
3.293513108614232  0.000000  0.000000  0.000000  -26.057532218923427  6.307156206737356  -0.7090370893150516  58.4311430773872  11.350514789695222  6.910822024230431  -172.67105773108213  12.930336438161104  -140.3907132606794  17.809269541849414  120.000000
3.333677902621723  0.000000  0.000000  0.000000  -26.09699080149237  6.371421418865477  -0.5846916277230728  58.32152468423573  11.265787195159364  6.8314460026616715  -172.1071016436698  13.06950484733208  -140.7579894529297  17.692094811160505  120.000000
3.3738426966292137  0.000000  0.000000  0.000000  -26.11079165938752  6.423356093437582  -0.4851812627541465  58.212772987599806  11.157128135581956  6.750046497513195  -171.68948319604542  13.109866532341124  -141.06028709150243  17.584070755401314  120.000000
3.414007490636704  0.000000  0.000000  0.000000  -26.09998525930478  6.462991206529525  -0.4117553759472056  58.10706792180361  11.024342956670967  6.668174777631074  -171.4214812394695  13.052872620821702  -141.28818616784005  17.482535274801265  120.000000
3.4541722846441947  0.000000  0.000000  0.000000  -26.06603558656407  6.490266762737251  -0.36523694869019685  58.005799973613456  10.86747605473059  6.587298875355197  -171.3024629710966  12.89955094988019  -141.43680940248032  17.385877826336877  120.000000
3.4943370786516854  0.000000  0.000000  0.000000  -26.010654589632665  6.505186792291834  -0.3460158160366573  57.909753935216294  10.686929835617965  6.5086350353752405  -171.32832408269897  12.650472195198079  -141.50540528811274  17.293475802796433  120.000000
3.534501872659176  0.000000  0.000000  0.000000  -25.935586021044188  6.507886511419847  -0.35405509317458883  57.81934755015201  10.483663226113052  6.433101399814771  -171.4925858048328  12.305689874118881  -141.49634460220938  17.205124864851356  120.000000
3.574666666666667  0.000000  0.000000  0.000000  -25.842593100219396  6.498594248976386  -0.38886887848003715  57.734718031963695  10.259372690939736  6.3616217400024295  -171.78763379003465  11.86461696999933  -141.41398037509106  17.120143417560822  120.000000
3.614831460674157  0.000000  0.000000  0.000000  -25.73311790606106  6.477548531278336  -0.4493859340186136  57.65585025572822  10.016478887544487  6.295201885625601  -172.20505126990128  11.326011898099559  -141.264457423214  17.036346803217192  120.000000
3.654996254681648  0.000000  0.000000  0.000000  -25.608364327379913  6.445043334457399  -0.5338994130910693  57.582531222157776  9.757974641783246  6.234816292049396  -172.73411725597686  10.688140961234875  -141.05707322695324  16.94935142270186  120.000000
3.6951610486891386  0.000000  0.000000  0.000000  -25.46939414404972  6.4017424753145775  -0.6404393732407057  57.514386988077824  9.487192822541907  6.181294409355111  -173.3616213528889  9.949115470432295  -140.80454679071357  16.852259323008298  120.000000
3.7353258426966294  0.000000  0.000000  0.000000  -25.316253869888055  6.3479972895457015  -0.7672485011317702  57.451661746364586  9.207557801640784  6.1351438887788845  -174.07475377915208  9.10751308923008  -140.51970211452053  16.73660092968558  120.000000
3.7754906367041197  0.000000  0.000000  0.000000  -25.14756038782636  6.283094320886767  -0.913389344672782  57.395496244552945  8.921644455848895  6.097490079933445  -174.86995421466344  8.163487299080128  -140.2067718779082  16.593461436127726  120.000000
3.8156554307116104  0.000000  0.000000  0.000000  -24.96092924597622  6.205444313867768  -1.0789458120772843  57.34666371789985  8.630884206985492  6.070396504937057  -175.74881717448935  7.119143063141889  -139.86528450827538  16.414220165893845  120.000000
3.855820224719101  0.000000  0.000000  0.000000  -24.752253502627266  6.113658464492015  -1.265286458905176  57.30544856590183  8.337331180837122  6.054489667152988  -176.6994114432823  5.977694079220972  -139.50874689090782  16.19102660333872  120.000000
3.895985018726592  0.000000  0.000000  0.000000  -24.516361302981867  6.00804509274821  -1.4747073494100733  57.27009388643925  8.044421271002767  6.0492508787487616  -177.6758066739226  4.743575353300977  -139.18484070705625  15.917192184637127  120.000000
3.9361498127340826  0.000000  0.000000  0.000000  -24.247338802040105  5.890292277826369  -1.7081968589058556  57.23689063125818  7.756878262677177  6.053732821938885  -178.57652607806185  3.4216000831615854  -138.99721298101215  15.588621902489482  120.000000
3.976314606741573  0.000000  0.000000  0.000000  -23.9395653835914  5.763308214550548  -1.9632445515802932  57.20160852018088  7.4831671404905435  6.066245093944011  -179.1721528444873  2.0148556588321536  -139.18050583806826  15.205604340923191  120.000000
4.016479400749064  0.000000  0.000000  0.000000  -23.593598848886113  5.632563542576078  -2.2318712046645346  57.15970057461352  7.237403355544363  6.085042664933957  -177.57487321495591  0.5228394631580193  -141.63393541742073  14.774182593732963  120.000000
